Coordinates
version=1
nRows=9
nColumns=36
inDegrees=yes

Units are S.I. units (second, meters, Newtons, ...)
If the header above contains a line with 'inDegrees', this indicates whether rotational values are in degrees (yes) or radians (no).

endheader
time	pelvis_tilt	pelvis_list	pelvis_rotation	pelvis_tx	pelvis_ty	pelvis_tz	hip_flexion_r	hip_adduction_r	hip_rotation_r	knee_angle_r	knee_angle_r_beta	ankle_angle_r	subtalar_angle_r	mtp_angle_r	hip_flexion_l	hip_adduction_l	hip_rotation_l	knee_angle_l	knee_angle_l_beta	ankle_angle_l	subtalar_angle_l	mtp_angle_l	lumbar_extension	lumbar_bending	lumbar_rotation	arm_flex_r	arm_add_r	arm_rot_r	elbow_flex_r	pro_sup_r	arm_flex_l	arm_add_l	arm_rot_l	elbow_flex_l	pro_sup_l
      3.60000000	      1.09975119	      0.82774428	     14.82863294	      0.78200021	      1.04347568	      0.14282261	     -8.02125005	     -8.14555288	    -14.30988391	      5.04600181	      0.08806935	     16.79287094	      0.65068309	     -7.49999987	     -5.99345392	     -6.23860378	     -8.02353139	      0.31013045	      0.00541280	     21.60803092	     10.25310821	     -7.49999987	      3.66054151	     -0.41910996	      0.37976398	    -23.42261066	    -36.35934260	     24.21919103	     84.39613061	     70.34352731	    -21.52279957	    -33.03154897	     20.75207189	     89.01496704	     70.80530419
      3.61666670	      1.23407889	      0.92572564	     14.92174675	      0.78207538	      1.04616873	      0.14300430	     -8.33232508	     -8.21680689	    -14.26256520	      5.05969282	      0.08830830	     16.98526568	      0.68281677	     -7.49999987	     -6.21281349	     -6.17343537	     -7.92976384	      0.30647464	      0.00534899	     21.50689644	     10.16967131	     -7.49999987	      3.95678757	     -0.45809463	      0.51467442	    -22.95887513	    -36.01776547	     24.62273467	     83.55064623	     70.02936265	    -21.24374070	    -32.82373823	     21.10173281	     88.08614143	     70.54352283
      3.63333330	      1.31889956	      0.99947773	     14.98409527	      0.78582728	      1.04688450	      0.14051451	     -8.58353431	     -8.29452868	    -14.19888426	      5.08081484	      0.08867695	     17.07685697	      0.66362704	     -7.49999987	     -6.40022759	     -6.09898192	     -7.86714075	      0.29838467	      0.00520779	     21.48647815	     10.19900259	     -7.49999987	      4.24281257	     -0.43934756	      0.65708057	    -22.94992401	    -35.88292335	     24.67869118	     83.42375630	     70.03221546	    -21.44296607	    -32.75175867	     21.17365258	     87.86451982	     70.54647359
      3.65000000	      1.37504347	      1.17835865	     15.05860550	      0.78567125	      1.04625100	      0.13534318	     -8.84295694	     -8.50965733	    -14.07963098	      5.05543541	      0.08823399	     17.23610179	      0.62520019	     -7.49999987	     -6.56897772	     -5.88108064	     -7.85335362	      0.29023052	      0.00506548	     21.39427014	     10.18700710	     -7.49999987	      4.60545163	     -0.51299359	      0.81854041	    -22.59727799	    -35.61769581	     24.97674188	     82.44564931	     70.04287765	    -21.38628844	    -32.40361936	     21.28082266	     86.73763999	     70.52968180
      3.66666670	      1.45968263	      1.23445772	     15.13187714	      0.78977907	      1.04696435	      0.13809021	     -9.09160597	     -8.56696383	    -14.08740403	      5.06960745	      0.08848134	     17.33871375	      0.56549616	     -7.49999987	     -6.74498228	     -5.82279029	     -7.81973498	      0.28414755	      0.00495931	     21.40096274	     10.19733136	     -7.49999987	      4.93088036	     -0.46064455	      0.98254302	    -22.55429667	    -35.49952840	     25.01863805	     82.37186375	     70.04398656	    -21.59027459	    -32.30395113	     21.35944204	     86.61566924	     70.52906872
      3.68333330	      1.45378358	      1.35148888	     15.13114472	      0.79012467	      1.04639808	      0.13826299	     -9.26486038	     -8.68914387	    -13.77743480	      4.99524227	      0.08718342	     17.42511512	      0.36127824	     -7.49999987	     -6.83356764	     -5.67972825	     -7.83559908	      0.27911670	      0.00487151	     21.30441894	     10.13600978	     -7.49999987	      5.31410101	     -0.58571236	      1.16454475	    -22.03964144	    -35.12495541	     25.46037562	     81.28886751	     69.76484986	    -21.51072455	    -32.09845075	     21.50564178	     85.87993772	     70.19425170
      3.70000000	      1.39530394	      1.45424630	     15.21527576	      0.78890034	      1.04778983	      0.13307617	     -9.35611477	     -8.86058954	    -13.83696764	      5.00713481	      0.08739099	     17.63930023	      0.58511424	     -7.49999987	     -6.85224737	     -5.52724349	     -7.89459435	      0.27261518	      0.00475803	     21.30891467	     10.26655521	     -7.49999987	      5.75603770	     -0.69350716	      1.09770296	    -21.24817063	    -35.16663930	     26.49403002	     80.58130425	     69.61857725	    -21.67307535	    -31.90427615	     21.57755355	     85.52724174	     69.87369703
      3.71666670	      1.43792050	      1.55646249	     15.22658228	      0.78918515	      1.04264397	      0.13331205	     -9.53299331	     -8.98475170	    -13.65491994	      4.97377482	      0.08680875	     17.65547022	      0.40523542	     -7.49999987	     -6.98171601	     -5.39754582	     -7.89432428	      0.27326965	      0.00476946	     21.33465595	     10.29644288	     -7.49999987	      6.00904341	     -0.77227961	      1.21517710	    -20.78348290	    -35.24071389	     26.90993986	     80.42121101	     69.09047535	    -21.56353453	    -31.90658029	     21.51976333	     85.80045994	     69.30171439
      3.73333330	      1.42165726	      1.65025457	     15.24492918	      0.78364618	      1.03923045	      0.13597721	     -9.55019215	     -9.12100869	    -13.66445467	      5.02956698	      0.08778250	     17.80374131	      0.37589101	     -7.49999987	     -6.99223856	     -5.26142027	     -7.80169459	      0.27644293	      0.00482484	     21.33795452	     10.20927618	     -7.49999987	      6.11276871	     -0.88432054	      1.31108429	    -20.01693166	    -35.37819174	     27.56601608	     80.24562371	     68.82563280	    -21.29291016	    -31.97135854	     21.59052998	     85.94507931	     69.11158025
